<svg xmlns="http://www.w3.org/2000/svg" height="40" viewBox="0 -960 960 960" width="40"><path d="M256.5-166q-87.07 0-148.202-60.608-61.131-60.609-61.131-147.599 0-77.315 48.833-135.47 48.833-58.156 123.833-70.989 15.667-79.667 81.334-143.751 65.666-64.083 148-64.083 25.271 0 44.302 15.917 19.031 15.916 19.031 40.582V-454l55.312-54.993q9.355-9.007 22.105-9.09 12.75-.084 22.583 9.416 9.333 9.667 9.333 22.584 0 12.916-9.189 22.106L502.667-354q-5.057 4.833-10.4 7t-11.64 2.167q-6.297 0-11.641-2.167-5.343-2.167-10.319-7l-109.5-109.834q-9.5-9.166-9.084-22.249.417-13.084 9.895-22.562 9.189-9.188 22.189-9.272 12.999-.083 22.499 9.084L449.167-454v-273.834q-83 13-129.417 74.334-46.417 61.333-46.417 132.833h-19.162q-59.505 0-101.838 41.667Q110-437.333 110-375q0 62.334 43.25 104 43.25 41.667 102.5 41.667h489.334q43.65 0 74.533-30.785 30.883-30.785 30.883-74.473 0-43.549-30.975-74.146-30.976-30.596-74.941-30.596h-61.251v-81.334q0-62.667-30.25-109.834-30.25-47.166-77.917-75.38V-775.5q78.667 30.166 125.084 99.833t46.917 155v18.167q69.333-.333 118 48.133 48.666 48.466 48.666 119.867 0 69.333-49.666 118.917Q814.5-166 745.167-166H256.5Zm224-343.833Z"/></svg>