<svg xmlns="http://www.w3.org/2000/svg" height="40" viewBox="0 -960 960 960" width="40"><path d="M514-609.999v-192.668q0-13.558 8.887-22.446Q531.775-834 545.333-834h257.334q13.558 0 22.446 8.887Q834-816.225 834-802.667v192.668q0 13.558-8.887 22.445-8.888 8.888-22.446 8.888H545.333q-13.558 0-22.446-8.888Q514-596.441 514-609.999ZM126-480.667v-322q0-13.558 8.887-22.446Q143.775-834 157.333-834h257.334q13.558 0 22.446 8.887Q446-816.225 446-802.667v322q0 13.559-8.887 22.446-8.888 8.888-22.446 8.888H157.333q-13.558 0-22.446-8.888Q126-467.108 126-480.667Zm388 323.334v-322q0-13.559 8.887-22.446 8.888-8.888 22.446-8.888h257.334q13.558 0 22.446 8.888Q834-492.892 834-479.333v322q0 13.558-8.887 22.446Q816.225-126 802.667-126H545.333q-13.558 0-22.446-8.887Q514-143.775 514-157.333Zm-388 0v-192.668q0-13.558 8.887-22.445 8.888-8.888 22.446-8.888h257.334q13.558 0 22.446 8.888Q446-363.559 446-350.001v192.668q0 13.558-8.887 22.446Q428.225-126 414.667-126H157.333q-13.558 0-22.446-8.887Q126-143.775 126-157.333Zm63.333-355.334h193.334v-258H189.333v258Zm388 323.334h193.334v-258.001H577.333v258.001Zm0-452.666h193.334v-128.668H577.333v128.668Zm-388 452.666h193.334v-128.668H189.333v128.668Zm193.334-323.334Zm194.666-129.332Zm0 194.665ZM382.667-318.001Z"/></svg>