<svg xmlns="http://www.w3.org/2000/svg" height="40" viewBox="0 -960 960 960" width="40"><path d="M354-252h252.5q12.95 0 22.225-9.284 9.275-9.283 9.275-22.5 0-13.216-9.275-22.383-9.275-9.166-22.225-9.166H354q-13.333 0-22.417 9.356-9.083 9.357-9.083 22.427 0 13.071 9.083 22.31Q340.667-252 354-252Zm0-165.334h252.5q12.95 0 22.225-9.283 9.275-9.284 9.275-22.5t-9.275-22.383q-9.275-9.167-22.225-9.167H354q-13.333 0-22.417 9.357-9.083 9.356-9.083 22.427 0 13.07 9.083 22.31 9.084 9.239 22.417 9.239ZM229.333-86.667q-25.625 0-44.479-18.854T166-150v-660q0-25.625 18.854-44.479t44.479-18.854h318.334q12.919 0 24.626 5t20.659 13.592l181.93 181.815q8.951 8.926 14.035 20.687Q794-640.478 794-627.501V-150q0 25.625-18.854 44.479t-44.479 18.854H229.333Zm313.334-569.167V-810H229.333v660h501.334v-474.001H574.5q-13.333 0-22.583-9.25-9.25-9.25-9.25-22.583ZM229.333-810v185.999V-810v660-660Z"/></svg>