<svg xmlns="http://www.w3.org/2000/svg" width="32" height="32" viewBox="0 0 32 32" fill="none">
  <path d="M16.0013 11.9998C14.9404 11.9998 13.923 12.4213 13.1729 13.1714C12.4227 13.9216 12.0013 14.939 12.0013 15.9998C12.0013 17.0607 12.4227 18.0781 13.1729 18.8283C13.923 19.5784 14.9404 19.9998 16.0013 19.9998C17.0622 19.9998 18.0796 19.5784 18.8297 18.8283C19.5799 18.0781 20.0013 17.0607 20.0013 15.9998C20.0013 14.939 19.5799 13.9216 18.8297 13.1714C18.0796 12.4213 17.0622 11.9998 16.0013 11.9998ZM16.0013 9.33317C17.7694 9.33317 19.4651 10.0355 20.7153 11.2858C21.9656 12.536 22.668 14.2317 22.668 15.9998C22.668 17.7679 21.9656 19.4636 20.7153 20.7139C19.4651 21.9641 17.7694 22.6665 16.0013 22.6665C14.2332 22.6665 12.5375 21.9641 11.2873 20.7139C10.037 19.4636 9.33463 17.7679 9.33463 15.9998C9.33463 14.2317 10.037 12.536 11.2873 11.2858C12.5375 10.0355 14.2332 9.33317 16.0013 9.33317ZM24.668 8.99984C24.668 9.44186 24.4924 9.86579 24.1798 10.1783C23.8673 10.4909 23.4433 10.6665 23.0013 10.6665C22.5593 10.6665 22.1354 10.4909 21.8228 10.1783C21.5102 9.86579 21.3346 9.44186 21.3346 8.99984C21.3346 8.55781 21.5102 8.13389 21.8228 7.82133C22.1354 7.50877 22.5593 7.33317 23.0013 7.33317C23.4433 7.33317 23.8673 7.50877 24.1798 7.82133C24.4924 8.13389 24.668 8.55781 24.668 8.99984ZM16.0013 5.33317C12.7026 5.33317 12.164 5.3425 10.6293 5.4105C9.58397 5.45984 8.88263 5.59984 8.23197 5.85317C7.68746 6.05309 7.19519 6.37352 6.79197 6.7905C6.37464 7.1937 6.05377 7.68595 5.8533 8.2305C5.59997 8.88384 5.45997 9.58384 5.41197 10.6278C5.34264 12.0998 5.3333 12.6145 5.3333 15.9998C5.3333 19.2998 5.34264 19.8372 5.41064 21.3718C5.45997 22.4158 5.59997 23.1185 5.85197 23.7678C6.07864 24.3478 6.3453 24.7652 6.78797 25.2078C7.2373 25.6558 7.65464 25.9238 8.22797 26.1452C8.88664 26.3998 9.58797 26.5412 10.628 26.5892C12.1 26.6585 12.6146 26.6665 16 26.6665C19.3 26.6665 19.8373 26.6572 21.372 26.5892C22.4146 26.5398 23.116 26.3998 23.768 26.1478C24.312 25.9469 24.8041 25.6266 25.208 25.2105C25.6573 24.7625 25.9253 24.3452 26.1466 23.7705C26.4 23.1145 26.5413 22.4132 26.5893 21.3705C26.6586 19.8998 26.6666 19.3838 26.6666 15.9998C26.6666 12.7012 26.6573 12.1625 26.5893 10.6278C26.54 9.58517 26.3986 8.88117 26.1466 8.2305C25.9457 7.68653 25.6254 7.19448 25.2093 6.7905C24.8063 6.37297 24.314 6.05206 23.7693 5.85184C23.116 5.5985 22.4146 5.4585 21.372 5.4105C19.9013 5.34117 19.388 5.33317 16.0013 5.33317ZM16.0013 2.6665C19.624 2.6665 20.076 2.67984 21.4986 2.7465C22.9173 2.81317 23.8853 3.03584 24.7346 3.3665C25.6146 3.70517 26.356 4.16384 27.0973 4.90384C27.7753 5.57036 28.2999 6.37662 28.6346 7.2665C28.964 8.11584 29.188 9.08384 29.2546 10.5038C29.3173 11.9252 29.3346 12.3772 29.3346 15.9998C29.3346 19.6225 29.3213 20.0745 29.2546 21.4958C29.188 22.9158 28.964 23.8825 28.6346 24.7332C28.3008 25.6235 27.7761 26.43 27.0973 27.0958C26.4306 27.7736 25.6244 28.2982 24.7346 28.6332C23.8853 28.9625 22.9173 29.1865 21.4986 29.2532C20.076 29.3158 19.624 29.3332 16.0013 29.3332C12.3786 29.3332 11.9266 29.3198 10.504 29.2532C9.0853 29.1865 8.11864 28.9625 7.26797 28.6332C6.37774 28.2991 5.57134 27.7744 4.9053 27.0958C4.22721 26.4294 3.70258 25.6231 3.36797 24.7332C3.0373 23.8838 2.81464 22.9158 2.74797 21.4958C2.68397 20.0745 2.66797 19.6225 2.66797 15.9998C2.66797 12.3772 2.6813 11.9252 2.74797 10.5038C2.81464 9.0825 3.0373 8.11717 3.36797 7.2665C3.70162 6.37608 4.22637 5.5696 4.9053 4.90384C5.57153 4.22548 6.37787 3.70081 7.26797 3.3665C8.1173 3.03584 9.08397 2.81317 10.504 2.7465C11.9266 2.68384 12.3786 2.6665 16.0013 2.6665Z" fill="white"/>
</svg>