<svg xmlns="http://www.w3.org/2000/svg" height="40" viewBox="0 -960 960 960" width="40"><path d="M190-123.333q-25.625 0-44.479-18.854t-18.854-44.479V-770q0-25.625 18.854-44.479T190-833.333h258.5q12.95 0 22.225 9.308Q480-814.716 480-801.717q0 13.383-9.275 22.55Q461.45-770 448.5-770H190v583.334h258.5q12.95 0 22.225 9.308Q480-168.049 480-155.049q0 13.382-9.275 22.549t-22.225 9.167H190Zm522.167-323.334H393.833q-13.333 0-22.583-9.283-9.25-9.284-9.25-22.5 0-13.217 9.25-22.383Q380.5-510 393.833-510h317.001l-78.419-78.419q-9.581-9.581-9.248-22.278.334-12.697 10-22.219 9.334-9.25 22.5-9.334 13.167-.083 22.7 9.45l132.767 132.767q9.533 9.533 9.533 22.457 0 12.924-9.5 22.243L678.908-323.074q-9.796 9.574-22.352 9.074-12.555-.5-22.316-9.667-9.406-9.667-9.489-22.75-.084-13.083 9.561-22.685l77.855-77.565Z"/></svg>