<svg xmlns="http://www.w3.org/2000/svg" height="40" viewBox="0 -960 960 960" width="40"><path d="M48.5-200.5v-64.11q0-34.112 17.266-61.736 17.265-27.624 48.089-41.664 68.638-30.99 127.808-45.406 59.17-14.417 121.004-14.417 61.833 0 120.532 14.417Q541.898-399 610.645-368.01q30.824 14.04 48.423 41.664 17.599 27.624 17.599 61.736v64.11q0 13.334-9.275 22.584-9.275 9.249-22.225 9.249H80q-13.334 0-22.417-9.249-9.083-9.25-9.083-22.584ZM729-168.667q5.131-5.504 9.315-14.176 4.185-8.673 4.185-19.323v-64.5q0-56.167-29.424-95.654-29.424-39.486-78.41-64.846 61.5 7.666 115.584 22.416t91.584 34.25q32.833 18.5 51.416 44.834 18.583 26.333 18.583 58.865v65.971q0 13.83-9.249 22.997-9.25 9.166-22.721 9.166H729ZM362.667-480q-64.825 0-107.08-42.254-42.254-42.254-42.254-107.079 0-64.825 42.254-107.079 42.255-42.254 107.08-42.254 64.825 0 107.079 42.254Q512-694.158 512-629.333q0 64.825-42.254 107.079Q427.492-480 362.667-480Zm361.332-149.709q0 64.401-42.254 106.805Q639.491-480.5 574.666-480.5q-10.167 0-23.844-1.677-13.678-1.677-24.156-5.192 24.851-26.407 37.759-62.61 12.908-36.204 12.908-79.455 0-43.252-12.917-78.468T526.666-772q10.833-3.375 23.833-5.021 13-1.645 24.167-1.645 64.825 0 107.079 42.381 42.254 42.381 42.254 106.576ZM111.833-232h501.501v-32.581q0-14.608-8.334-27.597-8.333-12.989-20.5-18.989-66.167-30.166-116.008-41.75Q418.651-364.5 362.833-364.5q-55.986 0-106.493 11.583-50.507 11.584-116.34 41.75-12.5 6-20.334 19.052-7.833 13.052-7.833 27.449V-232Zm250.772-311.333q36.895 0 61.478-24.521 24.584-24.522 24.584-61.417 0-36.896-24.522-61.479-24.521-24.583-61.416-24.583-36.896 0-61.479 24.521-24.584 24.521-24.584 61.417 0 36.895 24.522 61.479 24.521 24.583 61.417 24.583ZM362.667-232Zm0-397.333Z"/></svg>