<svg xmlns="http://www.w3.org/2000/svg" height="40" viewBox="0 -960 960 960" width="40"><path d="M150-166q-25.625 0-44.479-18.854t-18.854-44.479v-501.334q0-25.625 18.854-44.479T150-794h660q25.625 0 44.479 18.854t18.854 44.479v501.334q0 25.625-18.854 44.479T810-166H150Zm660-504.668L496.833-468.167q-4.333 2.167-8.25 3.667-3.916 1.5-8.583 1.5t-8.583-1.5q-3.917-1.5-7.917-3.667L150-670.668v441.335h660v-441.335ZM480-520.667l326.667-210H154l326 210ZM150-670.668v7.5-43.22.59-24.869 24.666-.608 43.488-7.525 441.313-441.335Z"/></svg>