<svg xmlns="http://www.w3.org/2000/svg" height="40" viewBox="0 -960 960 960" width="40"><path d="M480.015-480q-65.182 0-107.598-42.402Q330-564.804 330-629.985q0-65.182 42.402-107.598Q414.804-780 479.985-780q65.182 0 107.598 42.402Q630-695.196 630-630.015q0 65.182-42.402 107.598Q545.196-480 480.015-480Zm250.652 311.333H229.333q-26.125 0-44.729-18.604T166-232v-32.686q0-35.98 18.083-62.73 18.084-26.75 47.379-40.703Q296-397.666 357.083-412.75 418.167-427.833 480-427.833t122.583 15.25q60.75 15.25 125.342 44.702 30.056 13.928 48.066 40.489Q794-300.831 794-264.697v32.856q0 25.946-18.604 44.56t-44.729 18.614ZM229.333-232h501.334v-32.581q0-14.608-8.333-27.43-8.334-12.822-20.501-19.156-60.5-29.166-113.254-41.25Q535.825-364.5 480.087-364.5q-56.087 0-109.254 12.083-53.166 12.084-113 41.25-12.5 6.334-20.5 19.205-8 12.871-8 27.454V-232ZM480-543.333q37 0 61.833-24.833Q566.667-593 566.667-630t-24.834-61.833Q517-716.667 480-716.667t-61.833 24.834Q393.333-667 393.333-630t24.834 61.834Q443-543.333 480-543.333ZM480-630Zm0 398Z"/></svg>