<svg xmlns="http://www.w3.org/2000/svg" width="32" height="32" viewBox="0 0 32 32" fill="none">
  <path fill-rule="evenodd" clip-rule="evenodd" d="M29.12 8.07474C29.1782 7.72183 29.1407 7.35978 29.0113 7.02631C28.882 6.69284 28.6656 6.40016 28.3847 6.17875C28.1038 5.95735 27.7686 5.81533 27.4142 5.76749C27.0597 5.71964 26.6989 5.76773 26.3694 5.90674L3.56937 15.5067C1.98004 16.1761 1.8987 18.4747 3.56937 19.1681C5.22366 19.858 6.90206 20.4886 8.60137 21.0587C10.1587 21.5734 11.8574 22.0494 13.2187 22.1841C13.5907 22.6294 14.0587 23.0574 14.536 23.4507C15.2654 24.0507 16.1427 24.6681 17.0494 25.2601C18.8654 26.4467 20.88 27.5814 22.2374 28.3201C23.86 29.2001 25.8027 28.1867 26.0934 26.4174L29.12 8.07474ZM6.12537 17.3227L26.2907 8.8334L23.4667 25.9534C22.1347 25.2294 20.216 24.1454 18.5067 23.0281C17.7189 22.5223 16.9583 21.9753 16.228 21.3894C16.0328 21.23 15.8434 21.0636 15.66 20.8907L20.9414 15.6107C21.1916 15.3607 21.3322 15.0216 21.3323 14.6679C21.3324 14.3142 21.192 13.9749 20.942 13.7247C20.692 13.4745 20.3529 13.3339 19.9992 13.3338C19.6455 13.3337 19.3062 13.4741 19.056 13.7241L13.2734 19.5067C12.2947 19.3814 10.932 19.0187 9.43604 18.5254C8.3223 18.1544 7.21745 17.7533 6.12537 17.3227Z" fill="white"/>
</svg>