<svg xmlns="http://www.w3.org/2000/svg" height="40" viewBox="0 -960 960 960" width="40"><path d="M70.666-127.333q-25.625 0-44.479-18.854T7.333-190.666v-579.26q0-25.178 18.854-44.21 18.854-19.031 44.48-19.031h818.667q25.625 0 44.479 19.031 18.854 19.032 18.854 44.21v579.26q0 25.625-18.854 44.479t-44.479 18.854H70.666Zm528.5-63.333h290.168v-579.168H70.666v579.168h6.5q42.834-69 111.462-108.5t149.705-39.5q80.709 0 149.188 39.667 68.478 39.666 111.645 108.333ZM337.911-398q48.922 0 83.422-34.314t34.5-83.333q0-49.02-34.471-83.353-34.47-34.333-83.392-34.333t-83.196 34.262q-34.275 34.262-34.275 83.208 0 49.085 34.245 83.474Q288.99-398 337.911-398ZM156.499-190.666h362.834q-34.669-40.217-82.085-62.442-47.415-22.225-99.249-22.225-51.833 0-99.109 22.142-47.275 22.141-82.391 62.525Zm181.597-270.667q-22.93 0-38.597-15.602-15.667-15.603-15.667-38.667 0-23.065 15.536-38.732Q314.903-570 337.868-570t38.798 15.593q15.834 15.593 15.834 38.644t-15.737 38.74q-15.737 15.69-38.667 15.69ZM480-480.5Zm216.5-80v52.5q0 8.872 6.339 15.186t15.25 6.314q8.911 0 15.328-6.314 6.416-6.314 6.416-15.186v-52.5l45.667 26.167q7.691 4.166 15.915 2.434 8.223-1.732 13.168-9.735 4.75-8.004 2.348-16.351-2.402-8.348-10.098-13.515l-45.5-26.5L807-624.833q7.765-4.3 10.049-12.567t-2.632-16.618q-4.25-7.763-12.76-9.789-8.509-2.026-16.157 2.14l-45.667 25.834V-688q0-9.017-6.405-15.425-6.405-6.408-15.416-6.408-9.012 0-15.262 6.408T696.5-688v52.167l-45.667-25.834q-8-4.166-16.166-2.434-8.167 1.732-13.083 9.75-4.917 8.018-2.515 16.351 2.402 8.333 10.431 13.167L674.667-598 629-571.5q-7.765 4.367-10.049 12.738-2.284 8.371 2.716 16.762 4.233 7.774 12.7 9.804 8.466 2.029 16.466-2.137L696.5-560.5Z"/></svg>